<svg version="1.1" baseProfile = "full" 
width = "2000" height = "1600" 
xmlns = "http://www.w3.org/2000/svg">
<rect x="0" y="0" width="2000" height="100" fill="blue"/>
<text x="50" y="70" font-size="80" fill="white">Random6.svg</text>
<text x="750" y="70" font-size="80" fill="white">pr1002.tsp</text>
<text x="1300" y="70" font-size="80" fill="white">1002 - city problem </text>
<text x="50" y="1570" font-size="80">Distance = 1.95679e+06</text>
<text x="1000" y="1570" font-size="80">Time Elapsed = 0.305496</text>
<polyline points="165, 550 615, 895 920, 575 1575, 735 1235, 700 1090, 700 1260, 640 625, 720 1170, 445 1625, 1045 1565, 965 1225, 1155 1625.4, 470.6 1670, 680 1185, 950 1660, 720 1170, 515 555, 430 1065, 380 1090, 1205 1620, 1145 1630, 430 470, 605 675, 650 680, 430 375, 850 1425, 880 455, 350 975, 630 1030, 530 1555, 915 970, 895 1125, 545 1410, 735 1175, 1265 755, 1190 465, 300 1140, 1010 930, 350 1590, 885 530, 800 720, 1130 1425, 820 664.8, 495 1395, 745 1580, 700 1125, 595 1465, 790 1645, 1010 1695, 565 1610, 565 1080, 1045 445, 745 500, 465 785, 915 505, 1205 1255, 1085 590, 355 560, 355 545, 480 515, 965 1460, 1235 1480, 760 1055, 665 1640, 1155 1220, 540 1645, 645 1070, 575 785, 530 1120, 1235 1185, 720 695, 380 1675, 1000 1600, 1110 410, 1260 585, 525 1005, 800 915, 935 1600, 810 1170, 525 1735, 565 440, 1305 1450, 1175 480.5, 705.4 1735, 915 1045, 465 1545, 425 1670, 1130 920, 615 880, 480 1669.9, 1035.6 440, 1265 1015, 305 1685, 1170 185, 385 745, 1075 1100, 350 1120, 1315 385, 615 720, 1115 1060, 525 1530, 755 555, 1315 1580, 685 625, 495 595, 425 1395, 615 1525, 375 1515, 805 780, 1065 1035, 305 655, 1255 760, 700 1665, 640 1260, 915 480, 1145 1085, 1175 490, 925 1345, 295 460, 445 660, 1155 1625, 700 1375, 1270 695, 1305 750, 885 900, 1270 440, 1290 1490, 355 540, 355 885, 1310 1645, 445 605, 1045 1455, 400 1420, 1135 495, 500 595, 575 1599.8, 700 700, 1265 630, 685 1645, 380 675, 1045 1405, 365 1045, 515 1560, 575 1595, 1265 1030, 725 1330, 905 1470, 450 1120, 1175 1115, 885 1185.4, 745 540, 305 1430.4, 694.7 1220, 1275 470, 1095 1735, 555 1005, 760 1225, 885 480.4, 694.7 1600, 1010 1720, 1200 1125, 1010 730, 1085 1375, 1290 955, 430 590, 805 1390, 1075 1445, 895 1425, 930 1615, 430 785, 565 625, 350 1330, 895 1669.9, 1025 1495, 480 1380, 745 1505, 530 615, 1205 1515, 700 1485, 340 1465, 965 1105, 700 1235, 810 1450, 755 1730, 1085 1035, 510 580, 665 1130, 1305 1655, 1285 1615, 1070 1380, 785 380, 1215 455, 365 565, 700 675, 700 575, 685 1635, 1285 585, 565 650, 995 650, 430 1205, 1085 1555, 815 1085, 575 455, 1120 1335, 615 1370, 430 625, 735 1135, 1155 1135, 630 940, 300 1225, 1130 575, 425 620, 765 620, 750 665, 1010 1599.9, 710.7 975, 695 1120, 915 710.4, 745 1200, 1010 1155, 380 1495, 320 695, 515 495, 895 975, 645 1585, 525 1020, 500 590, 380 895, 430 1730, 1065 1390, 1165 1340, 470 1595, 915 445, 320 1720, 950 1445, 500 460, 1165 855, 905 650, 530 1625, 1170 1420, 565 1690, 1050 690, 1180 935, 675 1205, 700 660, 1130 510, 1260 500, 695 460, 465 750, 1200 1480, 800 615, 965 855, 1215 670, 1180 1139.8, 505.6 1600, 995 1185.3, 755.7 1415, 480 770, 1200 1625, 650 1615, 1010 650, 850 630, 700 1455, 1045 1080, 1025 1415, 300 1405, 350 520, 400 1195, 1115 785, 625 1330, 1085 1450, 1125 715, 1255 1190, 1255 905, 785 719.9, 1025 1125, 480 740, 1195 460, 625 1060, 295 480, 1165 1510, 355 1410, 1165 1410, 445 720, 730 649.8, 700 425, 1290 1210, 530 980, 1045 1545, 575 1595, 1125 1070, 425 1125, 530 975, 445 1710, 810 1040, 765 1160, 1035 510, 335 1325, 670 1215, 1195 610, 525 695, 1010 " stroke="blue" fill="transparent" stroke-width="3"/>
<circle cx="165" cy="550" r="5" fill="red"/>
<circle cx="155" cy="425" r="5" fill="red"/>
<circle cx="165" cy="375" r="5" fill="red"/>
<circle cx="175" cy="355" r="5" fill="red"/>
<circle cx="185" cy="385" r="5" fill="red"/>
<circle cx="155" cy="305" r="5" fill="red"/>
<circle cx="385" cy="320" r="5" fill="red"/>
<circle cx="395" cy="295" r="5" fill="red"/>
<circle cx="405" cy="310" r="5" fill="red"/>
<circle cx="445" cy="320" r="5" fill="red"/>
<circle cx="455" cy="350" r="5" fill="red"/>
<circle cx="455" cy="365" r="5" fill="red"/>
<circle cx="475" cy="315" r="5" fill="red"/>
<circle cx="465" cy="300" r="5" fill="red"/>
<circle cx="495" cy="295" r="5" fill="red"/>
<circle cx="490" cy="320" r="5" fill="red"/>
<circle cx="510" cy="335" r="5" fill="red"/>
<circle cx="540" cy="305" r="5" fill="red"/>
<circle cx="560" cy="305" r="5" fill="red"/>
<circle cx="585" cy="295" r="5" fill="red"/>
<circle cx="545" cy="320" r="5" fill="red"/>
<circle cx="535" cy="340" r="5" fill="red"/>
<circle cx="540" cy="355" r="5" fill="red"/>
<circle cx="550" cy="365" r="5" fill="red"/>
<circle cx="560" cy="355" r="5" fill="red"/>
<circle cx="590" cy="355" r="5" fill="red"/>
<circle cx="625" cy="350" r="5" fill="red"/>
<circle cx="640" cy="355" r="5" fill="red"/>
<circle cx="610" cy="375" r="5" fill="red"/>
<circle cx="590" cy="380" r="5" fill="red"/>
<circle cx="575" cy="375" r="5" fill="red"/>
<circle cx="550" cy="385" r="5" fill="red"/>
<circle cx="550" cy="405" r="5" fill="red"/>
<circle cx="555" cy="430" r="5" fill="red"/>
<circle cx="575" cy="425" r="5" fill="red"/>
<circle cx="595" cy="425" r="5" fill="red"/>
<circle cx="590" cy="445" r="5" fill="red"/>
<circle cx="570" cy="465" r="5" fill="red"/>
<circle cx="555" cy="460" r="5" fill="red"/>
<circle cx="545" cy="480" r="5" fill="red"/>
<circle cx="560" cy="510" r="5" fill="red"/>
<circle cx="570" cy="515" r="5" fill="red"/>
<circle cx="585" cy="525" r="5" fill="red"/>
<circle cx="595" cy="525" r="5" fill="red"/>
<circle cx="610" cy="525" r="5" fill="red"/>
<circle cx="610" cy="575" r="5" fill="red"/>
<circle cx="595" cy="575" r="5" fill="red"/>
<circle cx="585" cy="565" r="5" fill="red"/>
<circle cx="555" cy="530" r="5" fill="red"/>
<circle cx="545" cy="500" r="5" fill="red"/>
<circle cx="520" cy="500" r="5" fill="red"/>
<circle cx="490" cy="520" r="5" fill="red"/>
<circle cx="495" cy="500" r="5" fill="red"/>
<circle cx="460" cy="500" r="5" fill="red"/>
<circle cx="465" cy="480" r="5" fill="red"/>
<circle cx="460" cy="465" r="5" fill="red"/>
<circle cx="480" cy="480" r="5" fill="red"/>
<circle cx="500" cy="465" r="5" fill="red"/>
<circle cx="500" cy="445" r="5" fill="red"/>
<circle cx="520" cy="450" r="5" fill="red"/>
<circle cx="520" cy="430" r="5" fill="red"/>
<circle cx="520" cy="400" r="5" fill="red"/>
<circle cx="510" cy="385" r="5" fill="red"/>
<circle cx="505" cy="400" r="5" fill="red"/>
<circle cx="505" cy="430" r="5" fill="red"/>
<circle cx="480" cy="430" r="5" fill="red"/>
<circle cx="460" cy="445" r="5" fill="red"/>
<circle cx="420" cy="430" r="5" fill="red"/>
<circle cx="405" cy="430" r="5" fill="red"/>
<circle cx="390" cy="420" r="5" fill="red"/>
<circle cx="390" cy="470" r="5" fill="red"/>
<circle cx="420" cy="460" r="5" fill="red"/>
<circle cx="405" cy="480" r="5" fill="red"/>
<circle cx="385" cy="575" r="5" fill="red"/>
<circle cx="385" cy="615" r="5" fill="red"/>
<circle cx="375" cy="670" r="5" fill="red"/>
<circle cx="450" cy="655" r="5" fill="red"/>
<circle cx="460" cy="625" r="5" fill="red"/>
<circle cx="445" cy="615" r="5" fill="red"/>
<circle cx="445" cy="575" r="5" fill="red"/>
<circle cx="470" cy="565" r="5" fill="red"/>
<circle cx="470" cy="605" r="5" fill="red"/>
<circle cx="500" cy="590" r="5" fill="red"/>
<circle cx="520" cy="585" r="5" fill="red"/>
<circle cx="520" cy="625" r="5" fill="red"/>
<circle cx="500" cy="630" r="5" fill="red"/>
<circle cx="500" cy="645" r="5" fill="red"/>
<circle cx="485" cy="625" r="5" fill="red"/>
<circle cx="485" cy="640" r="5" fill="red"/>
<circle cx="474.7" cy="665" r="5" fill="red"/>
<circle cx="485.4" cy="675.6" r="5" fill="red"/>
<circle cx="474.7" cy="675.6" r="5" fill="red"/>
<circle cx="460" cy="675" r="5" fill="red"/>
<circle cx="460" cy="685" r="5" fill="red"/>
<circle cx="450" cy="705" r="5" fill="red"/>
<circle cx="469.9" cy="705.4" r="5" fill="red"/>
<circle cx="480.5" cy="705.4" r="5" fill="red"/>
<circle cx="480.4" cy="694.7" r="5" fill="red"/>
<circle cx="500" cy="695" r="5" fill="red"/>
<circle cx="500" cy="755" r="5" fill="red"/>
<circle cx="515" cy="750" r="5" fill="red"/>
<circle cx="530" cy="760" r="5" fill="red"/>
<circle cx="555" cy="755" r="5" fill="red"/>
<circle cx="565" cy="765" r="5" fill="red"/>
<circle cx="580" cy="755" r="5" fill="red"/>
<circle cx="590" cy="755" r="5" fill="red"/>
<circle cx="565" cy="700" r="5" fill="red"/>
<circle cx="575" cy="685" r="5" fill="red"/>
<circle cx="580" cy="665" r="5" fill="red"/>
<circle cx="615" cy="685" r="5" fill="red"/>
<circle cx="630" cy="685" r="5" fill="red"/>
<circle cx="615" cy="700" r="5" fill="red"/>
<circle cx="630" cy="700" r="5" fill="red"/>
<circle cx="625" cy="720" r="5" fill="red"/>
<circle cx="625" cy="735" r="5" fill="red"/>
<circle cx="620" cy="750" r="5" fill="red"/>
<circle cx="620" cy="765" r="5" fill="red"/>
<circle cx="605" cy="750" r="5" fill="red"/>
<circle cx="605" cy="765" r="5" fill="red"/>
<circle cx="650" cy="810" r="5" fill="red"/>
<circle cx="650" cy="850" r="5" fill="red"/>
<circle cx="605" cy="815" r="5" fill="red"/>
<circle cx="590" cy="805" r="5" fill="red"/>
<circle cx="580" cy="795" r="5" fill="red"/>
<circle cx="565" cy="805" r="5" fill="red"/>
<circle cx="565" cy="850" r="5" fill="red"/>
<circle cx="555" cy="805" r="5" fill="red"/>
<circle cx="530" cy="800" r="5" fill="red"/>
<circle cx="515" cy="790" r="5" fill="red"/>
<circle cx="500" cy="805" r="5" fill="red"/>
<circle cx="475" cy="820" r="5" fill="red"/>
<circle cx="475" cy="785" r="5" fill="red"/>
<circle cx="475" cy="745" r="5" fill="red"/>
<circle cx="460" cy="735" r="5" fill="red"/>
<circle cx="445" cy="745" r="5" fill="red"/>
<circle cx="430" cy="745" r="5" fill="red"/>
<circle cx="445" cy="785" r="5" fill="red"/>
<circle cx="430" cy="785" r="5" fill="red"/>
<circle cx="375" cy="850" r="5" fill="red"/>
<circle cx="380" cy="895" r="5" fill="red"/>
<circle cx="380" cy="905" r="5" fill="red"/>
<circle cx="440" cy="935" r="5" fill="red"/>
<circle cx="475" cy="930" r="5" fill="red"/>
<circle cx="490" cy="925" r="5" fill="red"/>
<circle cx="475" cy="880" r="5" fill="red"/>
<circle cx="495" cy="895" r="5" fill="red"/>
<circle cx="515" cy="895" r="5" fill="red"/>
<circle cx="505" cy="915" r="5" fill="red"/>
<circle cx="505" cy="940" r="5" fill="red"/>
<circle cx="515" cy="965" r="5" fill="red"/>
<circle cx="490" cy="975" r="5" fill="red"/>
<circle cx="475" cy="975" r="5" fill="red"/>
<circle cx="505" cy="1025" r="5" fill="red"/>
<circle cx="505" cy="1045" r="5" fill="red"/>
<circle cx="475" cy="1075" r="5" fill="red"/>
<circle cx="480" cy="1095" r="5" fill="red"/>
<circle cx="500" cy="1125" r="5" fill="red"/>
<circle cx="480" cy="1145" r="5" fill="red"/>
<circle cx="480" cy="1165" r="5" fill="red"/>
<circle cx="460" cy="1165" r="5" fill="red"/>
<circle cx="440" cy="1165" r="5" fill="red"/>
<circle cx="470" cy="1135" r="5" fill="red"/>
<circle cx="455" cy="1120" r="5" fill="red"/>
<circle cx="470" cy="1095" r="5" fill="red"/>
<circle cx="455" cy="1070" r="5" fill="red"/>
<circle cx="440" cy="1075" r="5" fill="red"/>
<circle cx="425" cy="1100" r="5" fill="red"/>
<circle cx="395" cy="1095" r="5" fill="red"/>
<circle cx="380" cy="1085" r="5" fill="red"/>
<circle cx="380" cy="1215" r="5" fill="red"/>
<circle cx="395" cy="1195" r="5" fill="red"/>
<circle cx="425" cy="1200" r="5" fill="red"/>
<circle cx="410" cy="1260" r="5" fill="red"/>
<circle cx="425" cy="1270" r="5" fill="red"/>
<circle cx="425" cy="1290" r="5" fill="red"/>
<circle cx="410" cy="1310" r="5" fill="red"/>
<circle cx="440" cy="1305" r="5" fill="red"/>
<circle cx="440" cy="1290" r="5" fill="red"/>
<circle cx="440" cy="1265" r="5" fill="red"/>
<circle cx="460" cy="1265" r="5" fill="red"/>
<circle cx="480" cy="1265" r="5" fill="red"/>
<circle cx="510" cy="1260" r="5" fill="red"/>
<circle cx="510" cy="1235" r="5" fill="red"/>
<circle cx="505" cy="1205" r="5" fill="red"/>
<circle cx="500" cy="1175" r="5" fill="red"/>
<circle cx="610" cy="1125" r="5" fill="red"/>
<circle cx="610" cy="1175" r="5" fill="red"/>
<circle cx="645" cy="1175" r="5" fill="red"/>
<circle cx="660" cy="1175" r="5" fill="red"/>
<circle cx="675" cy="1170" r="5" fill="red"/>
<circle cx="690" cy="1180" r="5" fill="red"/>
<circle cx="670" cy="1180" r="5" fill="red"/>
<circle cx="665" cy="1190" r="5" fill="red"/>
<circle cx="645" cy="1205" r="5" fill="red"/>
<circle cx="615" cy="1205" r="5" fill="red"/>
<circle cx="610" cy="1235" r="5" fill="red"/>
<circle cx="645" cy="1235" r="5" fill="red"/>
<circle cx="655" cy="1255" r="5" fill="red"/>
<circle cx="665" cy="1255" r="5" fill="red"/>
<circle cx="670" cy="1265" r="5" fill="red"/>
<circle cx="645" cy="1265" r="5" fill="red"/>
<circle cx="610" cy="1260" r="5" fill="red"/>
<circle cx="645" cy="1315" r="5" fill="red"/>
<circle cx="655" cy="1305" r="5" fill="red"/>
<circle cx="695" cy="1305" r="5" fill="red"/>
<circle cx="685" cy="1285" r="5" fill="red"/>
<circle cx="705" cy="1285" r="5" fill="red"/>
<circle cx="700" cy="1265" r="5" fill="red"/>
<circle cx="715" cy="1255" r="5" fill="red"/>
<circle cx="745" cy="1275" r="5" fill="red"/>
<circle cx="745" cy="1215" r="5" fill="red"/>
<circle cx="750" cy="1200" r="5" fill="red"/>
<circle cx="770" cy="1200" r="5" fill="red"/>
<circle cx="770" cy="1170" r="5" fill="red"/>
<circle cx="760" cy="1175" r="5" fill="red"/>
<circle cx="755" cy="1190" r="5" fill="red"/>
<circle cx="740" cy="1195" r="5" fill="red"/>
<circle cx="720" cy="1180" r="5" fill="red"/>
<circle cx="735" cy="1170" r="5" fill="red"/>
<circle cx="750" cy="1155" r="5" fill="red"/>
<circle cx="730" cy="1145" r="5" fill="red"/>
<circle cx="750" cy="1130" r="5" fill="red"/>
<circle cx="760" cy="1125" r="5" fill="red"/>
<circle cx="780" cy="1115" r="5" fill="red"/>
<circle cx="780" cy="1085" r="5" fill="red"/>
<circle cx="780" cy="1065" r="5" fill="red"/>
<circle cx="780" cy="1050" r="5" fill="red"/>
<circle cx="750" cy="1050" r="5" fill="red"/>
<circle cx="740" cy="1050" r="5" fill="red"/>
<circle cx="745" cy="1075" r="5" fill="red"/>
<circle cx="720" cy="1065" r="5" fill="red"/>
<circle cx="730" cy="1085" r="5" fill="red"/>
<circle cx="720" cy="1115" r="5" fill="red"/>
<circle cx="720" cy="1130" r="5" fill="red"/>
<circle cx="710" cy="1130" r="5" fill="red"/>
<circle cx="700" cy="1155" r="5" fill="red"/>
<circle cx="690" cy="1155" r="5" fill="red"/>
<circle cx="670" cy="1145" r="5" fill="red"/>
<circle cx="660" cy="1155" r="5" fill="red"/>
<circle cx="660" cy="1130" r="5" fill="red"/>
<circle cx="645" cy="1125" r="5" fill="red"/>
<circle cx="650" cy="1110" r="5" fill="red"/>
<circle cx="665" cy="1070" r="5" fill="red"/>
<circle cx="675" cy="1045" r="5" fill="red"/>
<circle cx="675" cy="1035" r="5" fill="red"/>
<circle cx="685" cy="1035" r="5" fill="red"/>
<circle cx="665" cy="1010" r="5" fill="red"/>
<circle cx="665" cy="1000" r="5" fill="red"/>
<circle cx="650" cy="995" r="5" fill="red"/>
<circle cx="650" cy="1010" r="5" fill="red"/>
<circle cx="605" cy="1045" r="5" fill="red"/>
<circle cx="605" cy="1025" r="5" fill="red"/>
<circle cx="615" cy="965" r="5" fill="red"/>
<circle cx="605" cy="940" r="5" fill="red"/>
<circle cx="605" cy="915" r="5" fill="red"/>
<circle cx="615" cy="895" r="5" fill="red"/>
<circle cx="640" cy="885" r="5" fill="red"/>
<circle cx="645" cy="915" r="5" fill="red"/>
<circle cx="650" cy="935" r="5" fill="red"/>
<circle cx="690" cy="985" r="5" fill="red"/>
<circle cx="695" cy="1010" r="5" fill="red"/>
<circle cx="700" cy="1020" r="5" fill="red"/>
<circle cx="700" cy="1050" r="5" fill="red"/>
<circle cx="710" cy="1050" r="5" fill="red"/>
<circle cx="719.9" cy="1035.6" r="5" fill="red"/>
<circle cx="719.9" cy="1025" r="5" fill="red"/>
<circle cx="730.5" cy="1024.9" r="5" fill="red"/>
<circle cx="725" cy="1010" r="5" fill="red"/>
<circle cx="725" cy="1000" r="5" fill="red"/>
<circle cx="710" cy="950" r="5" fill="red"/>
<circle cx="740" cy="985" r="5" fill="red"/>
<circle cx="770" cy="950" r="5" fill="red"/>
<circle cx="785" cy="915" r="5" fill="red"/>
<circle cx="750" cy="885" r="5" fill="red"/>
<circle cx="760" cy="825" r="5" fill="red"/>
<circle cx="760" cy="810" r="5" fill="red"/>
<circle cx="730" cy="750" r="5" fill="red"/>
<circle cx="710.3" cy="755.7" r="5" fill="red"/>
<circle cx="699.8" cy="755.7" r="5" fill="red"/>
<circle cx="710.4" cy="745" r="5" fill="red"/>
<circle cx="720" cy="730" r="5" fill="red"/>
<circle cx="710" cy="720" r="5" fill="red"/>
<circle cx="705" cy="700" r="5" fill="red"/>
<circle cx="730" cy="700" r="5" fill="red"/>
<circle cx="760" cy="700" r="5" fill="red"/>
<circle cx="760" cy="660" r="5" fill="red"/>
<circle cx="785" cy="640" r="5" fill="red"/>
<circle cx="785" cy="625" r="5" fill="red"/>
<circle cx="785" cy="565" r="5" fill="red"/>
<circle cx="785" cy="555" r="5" fill="red"/>
<circle cx="785" cy="540" r="5" fill="red"/>
<circle cx="785" cy="530" r="5" fill="red"/>
<circle cx="745" cy="540" r="5" fill="red"/>
<circle cx="735" cy="530" r="5" fill="red"/>
<circle cx="735" cy="555" r="5" fill="red"/>
<circle cx="745" cy="565" r="5" fill="red"/>
<circle cx="715" cy="640" r="5" fill="red"/>
<circle cx="720" cy="655" r="5" fill="red"/>
<circle cx="720" cy="680" r="5" fill="red"/>
<circle cx="710" cy="670" r="5" fill="red"/>
<circle cx="675" cy="700" r="5" fill="red"/>
<circle cx="660.6" cy="710.6" r="5" fill="red"/>
<circle cx="649.9" cy="710.7" r="5" fill="red"/>
<circle cx="649.8" cy="700" r="5" fill="red"/>
<circle cx="675" cy="650" r="5" fill="red"/>
<circle cx="660" cy="630" r="5" fill="red"/>
<circle cx="650" cy="595" r="5" fill="red"/>
<circle cx="660" cy="590" r="5" fill="red"/>
<circle cx="660" cy="565" r="5" fill="red"/>
<circle cx="650" cy="545" r="5" fill="red"/>
<circle cx="650" cy="530" r="5" fill="red"/>
<circle cx="635" cy="525" r="5" fill="red"/>
<circle cx="625" cy="495" r="5" fill="red"/>
<circle cx="635" cy="455" r="5" fill="red"/>
<circle cx="650" cy="470" r="5" fill="red"/>
<circle cx="650" cy="480" r="5" fill="red"/>
<circle cx="660" cy="515" r="5" fill="red"/>
<circle cx="664.8" cy="505.6" r="5" fill="red"/>
<circle cx="664.8" cy="495" r="5" fill="red"/>
<circle cx="675.4" cy="505.7" r="5" fill="red"/>
<circle cx="695" cy="525" r="5" fill="red"/>
<circle cx="695" cy="515" r="5" fill="red"/>
<circle cx="695" cy="495" r="5" fill="red"/>
<circle cx="675.4" cy="470.6" r="5" fill="red"/>
<circle cx="664.8" cy="470.6" r="5" fill="red"/>
<circle cx="664.8" cy="459.9" r="5" fill="red"/>
<circle cx="695" cy="445" r="5" fill="red"/>
<circle cx="695" cy="430" r="5" fill="red"/>
<circle cx="680" cy="430" r="5" fill="red"/>
<circle cx="665" cy="430" r="5" fill="red"/>
<circle cx="650" cy="430" r="5" fill="red"/>
<circle cx="665" cy="380" r="5" fill="red"/>
<circle cx="680" cy="380" r="5" fill="red"/>
<circle cx="695" cy="380" r="5" fill="red"/>
<circle cx="860" cy="320" r="5" fill="red"/>
<circle cx="870" cy="295" r="5" fill="red"/>
<circle cx="880" cy="310" r="5" fill="red"/>
<circle cx="920" cy="320" r="5" fill="red"/>
<circle cx="930" cy="350" r="5" fill="red"/>
<circle cx="930" cy="365" r="5" fill="red"/>
<circle cx="950" cy="315" r="5" fill="red"/>
<circle cx="940" cy="300" r="5" fill="red"/>
<circle cx="970" cy="295" r="5" fill="red"/>
<circle cx="965" cy="320" r="5" fill="red"/>
<circle cx="985" cy="335" r="5" fill="red"/>
<circle cx="1015" cy="305" r="5" fill="red"/>
<circle cx="1035" cy="305" r="5" fill="red"/>
<circle cx="1060" cy="295" r="5" fill="red"/>
<circle cx="1020" cy="320" r="5" fill="red"/>
<circle cx="1010" cy="340" r="5" fill="red"/>
<circle cx="1015" cy="355" r="5" fill="red"/>
<circle cx="1025" cy="365" r="5" fill="red"/>
<circle cx="1035" cy="355" r="5" fill="red"/>
<circle cx="1065" cy="355" r="5" fill="red"/>
<circle cx="1100" cy="350" r="5" fill="red"/>
<circle cx="1115" cy="355" r="5" fill="red"/>
<circle cx="1085" cy="375" r="5" fill="red"/>
<circle cx="1065" cy="380" r="5" fill="red"/>
<circle cx="1050" cy="375" r="5" fill="red"/>
<circle cx="1025" cy="385" r="5" fill="red"/>
<circle cx="1025" cy="405" r="5" fill="red"/>
<circle cx="1030" cy="430" r="5" fill="red"/>
<circle cx="1050" cy="425" r="5" fill="red"/>
<circle cx="1070" cy="425" r="5" fill="red"/>
<circle cx="1065" cy="445" r="5" fill="red"/>
<circle cx="1045" cy="465" r="5" fill="red"/>
<circle cx="1030" cy="460" r="5" fill="red"/>
<circle cx="1020" cy="480" r="5" fill="red"/>
<circle cx="1035" cy="510" r="5" fill="red"/>
<circle cx="1045" cy="515" r="5" fill="red"/>
<circle cx="1060" cy="525" r="5" fill="red"/>
<circle cx="1070" cy="525" r="5" fill="red"/>
<circle cx="1085" cy="525" r="5" fill="red"/>
<circle cx="1085" cy="575" r="5" fill="red"/>
<circle cx="1070" cy="575" r="5" fill="red"/>
<circle cx="1060" cy="565" r="5" fill="red"/>
<circle cx="1030" cy="530" r="5" fill="red"/>
<circle cx="1020" cy="500" r="5" fill="red"/>
<circle cx="995" cy="500" r="5" fill="red"/>
<circle cx="965" cy="520" r="5" fill="red"/>
<circle cx="970" cy="500" r="5" fill="red"/>
<circle cx="935" cy="500" r="5" fill="red"/>
<circle cx="940" cy="480" r="5" fill="red"/>
<circle cx="935" cy="465" r="5" fill="red"/>
<circle cx="955" cy="480" r="5" fill="red"/>
<circle cx="975" cy="465" r="5" fill="red"/>
<circle cx="975" cy="445" r="5" fill="red"/>
<circle cx="995" cy="450" r="5" fill="red"/>
<circle cx="995" cy="430" r="5" fill="red"/>
<circle cx="995" cy="400" r="5" fill="red"/>
<circle cx="985" cy="385" r="5" fill="red"/>
<circle cx="980" cy="400" r="5" fill="red"/>
<circle cx="980" cy="430" r="5" fill="red"/>
<circle cx="955" cy="430" r="5" fill="red"/>
<circle cx="935" cy="445" r="5" fill="red"/>
<circle cx="895" cy="430" r="5" fill="red"/>
<circle cx="880" cy="430" r="5" fill="red"/>
<circle cx="865" cy="420" r="5" fill="red"/>
<circle cx="865" cy="470" r="5" fill="red"/>
<circle cx="895" cy="460" r="5" fill="red"/>
<circle cx="880" cy="480" r="5" fill="red"/>
<circle cx="860" cy="575" r="5" fill="red"/>
<circle cx="860" cy="615" r="5" fill="red"/>
<circle cx="850" cy="670" r="5" fill="red"/>
<circle cx="925" cy="655" r="5" fill="red"/>
<circle cx="935" cy="625" r="5" fill="red"/>
<circle cx="920" cy="615" r="5" fill="red"/>
<circle cx="920" cy="575" r="5" fill="red"/>
<circle cx="945" cy="565" r="5" fill="red"/>
<circle cx="945" cy="605" r="5" fill="red"/>
<circle cx="975" cy="590" r="5" fill="red"/>
<circle cx="995" cy="585" r="5" fill="red"/>
<circle cx="995" cy="625" r="5" fill="red"/>
<circle cx="975" cy="630" r="5" fill="red"/>
<circle cx="975" cy="645" r="5" fill="red"/>
<circle cx="960" cy="625" r="5" fill="red"/>
<circle cx="960" cy="640" r="5" fill="red"/>
<circle cx="949.7" cy="665" r="5" fill="red"/>
<circle cx="960.4" cy="675.6" r="5" fill="red"/>
<circle cx="949.7" cy="675.6" r="5" fill="red"/>
<circle cx="935" cy="675" r="5" fill="red"/>
<circle cx="935" cy="685" r="5" fill="red"/>
<circle cx="925" cy="705" r="5" fill="red"/>
<circle cx="944.9" cy="705.4" r="5" fill="red"/>
<circle cx="955.5" cy="705.4" r="5" fill="red"/>
<circle cx="955.4" cy="694.7" r="5" fill="red"/>
<circle cx="975" cy="695" r="5" fill="red"/>
<circle cx="975" cy="755" r="5" fill="red"/>
<circle cx="990" cy="750" r="5" fill="red"/>
<circle cx="1005" cy="760" r="5" fill="red"/>
<circle cx="1030" cy="755" r="5" fill="red"/>
<circle cx="1040" cy="765" r="5" fill="red"/>
<circle cx="1055" cy="755" r="5" fill="red"/>
<circle cx="1065" cy="755" r="5" fill="red"/>
<circle cx="1040" cy="700" r="5" fill="red"/>
<circle cx="1050" cy="685" r="5" fill="red"/>
<circle cx="1055" cy="665" r="5" fill="red"/>
<circle cx="1090" cy="685" r="5" fill="red"/>
<circle cx="1105" cy="685" r="5" fill="red"/>
<circle cx="1090" cy="700" r="5" fill="red"/>
<circle cx="1105" cy="700" r="5" fill="red"/>
<circle cx="1100" cy="720" r="5" fill="red"/>
<circle cx="1100" cy="735" r="5" fill="red"/>
<circle cx="1095" cy="750" r="5" fill="red"/>
<circle cx="1095" cy="765" r="5" fill="red"/>
<circle cx="1080" cy="750" r="5" fill="red"/>
<circle cx="1080" cy="765" r="5" fill="red"/>
<circle cx="1125" cy="810" r="5" fill="red"/>
<circle cx="1125" cy="850" r="5" fill="red"/>
<circle cx="1080" cy="815" r="5" fill="red"/>
<circle cx="1065" cy="805" r="5" fill="red"/>
<circle cx="1055" cy="795" r="5" fill="red"/>
<circle cx="1040" cy="805" r="5" fill="red"/>
<circle cx="1040" cy="850" r="5" fill="red"/>
<circle cx="1030" cy="805" r="5" fill="red"/>
<circle cx="1005" cy="800" r="5" fill="red"/>
<circle cx="990" cy="790" r="5" fill="red"/>
<circle cx="975" cy="805" r="5" fill="red"/>
<circle cx="950" cy="820" r="5" fill="red"/>
<circle cx="950" cy="785" r="5" fill="red"/>
<circle cx="950" cy="745" r="5" fill="red"/>
<circle cx="935" cy="735" r="5" fill="red"/>
<circle cx="920" cy="745" r="5" fill="red"/>
<circle cx="905" cy="745" r="5" fill="red"/>
<circle cx="920" cy="785" r="5" fill="red"/>
<circle cx="905" cy="785" r="5" fill="red"/>
<circle cx="850" cy="850" r="5" fill="red"/>
<circle cx="855" cy="895" r="5" fill="red"/>
<circle cx="855" cy="905" r="5" fill="red"/>
<circle cx="915" cy="935" r="5" fill="red"/>
<circle cx="950" cy="930" r="5" fill="red"/>
<circle cx="965" cy="925" r="5" fill="red"/>
<circle cx="950" cy="880" r="5" fill="red"/>
<circle cx="970" cy="895" r="5" fill="red"/>
<circle cx="990" cy="895" r="5" fill="red"/>
<circle cx="980" cy="915" r="5" fill="red"/>
<circle cx="980" cy="940" r="5" fill="red"/>
<circle cx="990" cy="965" r="5" fill="red"/>
<circle cx="965" cy="975" r="5" fill="red"/>
<circle cx="950" cy="975" r="5" fill="red"/>
<circle cx="980" cy="1025" r="5" fill="red"/>
<circle cx="980" cy="1045" r="5" fill="red"/>
<circle cx="950" cy="1075" r="5" fill="red"/>
<circle cx="955" cy="1095" r="5" fill="red"/>
<circle cx="975" cy="1125" r="5" fill="red"/>
<circle cx="955" cy="1145" r="5" fill="red"/>
<circle cx="955" cy="1165" r="5" fill="red"/>
<circle cx="935" cy="1165" r="5" fill="red"/>
<circle cx="915" cy="1165" r="5" fill="red"/>
<circle cx="945" cy="1135" r="5" fill="red"/>
<circle cx="930" cy="1120" r="5" fill="red"/>
<circle cx="945" cy="1095" r="5" fill="red"/>
<circle cx="930" cy="1070" r="5" fill="red"/>
<circle cx="915" cy="1075" r="5" fill="red"/>
<circle cx="900" cy="1100" r="5" fill="red"/>
<circle cx="870" cy="1095" r="5" fill="red"/>
<circle cx="855" cy="1085" r="5" fill="red"/>
<circle cx="855" cy="1215" r="5" fill="red"/>
<circle cx="870" cy="1195" r="5" fill="red"/>
<circle cx="900" cy="1200" r="5" fill="red"/>
<circle cx="885" cy="1260" r="5" fill="red"/>
<circle cx="900" cy="1270" r="5" fill="red"/>
<circle cx="900" cy="1290" r="5" fill="red"/>
<circle cx="885" cy="1310" r="5" fill="red"/>
<circle cx="915" cy="1305" r="5" fill="red"/>
<circle cx="915" cy="1290" r="5" fill="red"/>
<circle cx="915" cy="1265" r="5" fill="red"/>
<circle cx="935" cy="1265" r="5" fill="red"/>
<circle cx="955" cy="1265" r="5" fill="red"/>
<circle cx="985" cy="1260" r="5" fill="red"/>
<circle cx="985" cy="1235" r="5" fill="red"/>
<circle cx="980" cy="1205" r="5" fill="red"/>
<circle cx="975" cy="1175" r="5" fill="red"/>
<circle cx="1085" cy="1125" r="5" fill="red"/>
<circle cx="1085" cy="1175" r="5" fill="red"/>
<circle cx="1120" cy="1175" r="5" fill="red"/>
<circle cx="1135" cy="1175" r="5" fill="red"/>
<circle cx="1150" cy="1170" r="5" fill="red"/>
<circle cx="1165" cy="1180" r="5" fill="red"/>
<circle cx="1145" cy="1180" r="5" fill="red"/>
<circle cx="1140" cy="1190" r="5" fill="red"/>
<circle cx="1120" cy="1205" r="5" fill="red"/>
<circle cx="1090" cy="1205" r="5" fill="red"/>
<circle cx="1085" cy="1235" r="5" fill="red"/>
<circle cx="1120" cy="1235" r="5" fill="red"/>
<circle cx="1130" cy="1255" r="5" fill="red"/>
<circle cx="1140" cy="1255" r="5" fill="red"/>
<circle cx="1145" cy="1265" r="5" fill="red"/>
<circle cx="1120" cy="1265" r="5" fill="red"/>
<circle cx="1085" cy="1260" r="5" fill="red"/>
<circle cx="1120" cy="1315" r="5" fill="red"/>
<circle cx="1130" cy="1305" r="5" fill="red"/>
<circle cx="1170" cy="1305" r="5" fill="red"/>
<circle cx="1160" cy="1285" r="5" fill="red"/>
<circle cx="1180" cy="1285" r="5" fill="red"/>
<circle cx="1175" cy="1265" r="5" fill="red"/>
<circle cx="1190" cy="1255" r="5" fill="red"/>
<circle cx="1220" cy="1275" r="5" fill="red"/>
<circle cx="1220" cy="1215" r="5" fill="red"/>
<circle cx="1225" cy="1200" r="5" fill="red"/>
<circle cx="1245" cy="1200" r="5" fill="red"/>
<circle cx="1245" cy="1170" r="5" fill="red"/>
<circle cx="1235" cy="1175" r="5" fill="red"/>
<circle cx="1230" cy="1190" r="5" fill="red"/>
<circle cx="1215" cy="1195" r="5" fill="red"/>
<circle cx="1195" cy="1180" r="5" fill="red"/>
<circle cx="1210" cy="1170" r="5" fill="red"/>
<circle cx="1225" cy="1155" r="5" fill="red"/>
<circle cx="1205" cy="1145" r="5" fill="red"/>
<circle cx="1225" cy="1130" r="5" fill="red"/>
<circle cx="1235" cy="1125" r="5" fill="red"/>
<circle cx="1255" cy="1115" r="5" fill="red"/>
<circle cx="1255" cy="1085" r="5" fill="red"/>
<circle cx="1255" cy="1065" r="5" fill="red"/>
<circle cx="1255" cy="1050" r="5" fill="red"/>
<circle cx="1225" cy="1050" r="5" fill="red"/>
<circle cx="1215" cy="1050" r="5" fill="red"/>
<circle cx="1220" cy="1075" r="5" fill="red"/>
<circle cx="1195" cy="1065" r="5" fill="red"/>
<circle cx="1205" cy="1085" r="5" fill="red"/>
<circle cx="1195" cy="1115" r="5" fill="red"/>
<circle cx="1195" cy="1130" r="5" fill="red"/>
<circle cx="1185" cy="1130" r="5" fill="red"/>
<circle cx="1175" cy="1155" r="5" fill="red"/>
<circle cx="1165" cy="1155" r="5" fill="red"/>
<circle cx="1145" cy="1145" r="5" fill="red"/>
<circle cx="1135" cy="1155" r="5" fill="red"/>
<circle cx="1135" cy="1130" r="5" fill="red"/>
<circle cx="1120" cy="1125" r="5" fill="red"/>
<circle cx="1125" cy="1110" r="5" fill="red"/>
<circle cx="1140" cy="1070" r="5" fill="red"/>
<circle cx="1150" cy="1045" r="5" fill="red"/>
<circle cx="1150" cy="1035" r="5" fill="red"/>
<circle cx="1160" cy="1035" r="5" fill="red"/>
<circle cx="1140" cy="1010" r="5" fill="red"/>
<circle cx="1140" cy="1000" r="5" fill="red"/>
<circle cx="1125" cy="995" r="5" fill="red"/>
<circle cx="1125" cy="1010" r="5" fill="red"/>
<circle cx="1080" cy="1045" r="5" fill="red"/>
<circle cx="1080" cy="1025" r="5" fill="red"/>
<circle cx="1090" cy="965" r="5" fill="red"/>
<circle cx="1080" cy="940" r="5" fill="red"/>
<circle cx="1080" cy="915" r="5" fill="red"/>
<circle cx="1090" cy="895" r="5" fill="red"/>
<circle cx="1115" cy="885" r="5" fill="red"/>
<circle cx="1120" cy="915" r="5" fill="red"/>
<circle cx="1125" cy="935" r="5" fill="red"/>
<circle cx="1165" cy="985" r="5" fill="red"/>
<circle cx="1170" cy="1010" r="5" fill="red"/>
<circle cx="1175" cy="1020" r="5" fill="red"/>
<circle cx="1175" cy="1050" r="5" fill="red"/>
<circle cx="1185" cy="1050" r="5" fill="red"/>
<circle cx="1194.9" cy="1035.6" r="5" fill="red"/>
<circle cx="1194.9" cy="1025" r="5" fill="red"/>
<circle cx="1205.5" cy="1024.9" r="5" fill="red"/>
<circle cx="1200" cy="1010" r="5" fill="red"/>
<circle cx="1200" cy="1000" r="5" fill="red"/>
<circle cx="1185" cy="950" r="5" fill="red"/>
<circle cx="1215" cy="985" r="5" fill="red"/>
<circle cx="1245" cy="950" r="5" fill="red"/>
<circle cx="1260" cy="915" r="5" fill="red"/>
<circle cx="1225" cy="885" r="5" fill="red"/>
<circle cx="1235" cy="825" r="5" fill="red"/>
<circle cx="1235" cy="810" r="5" fill="red"/>
<circle cx="1205" cy="750" r="5" fill="red"/>
<circle cx="1185.3" cy="755.7" r="5" fill="red"/>
<circle cx="1174.8" cy="755.7" r="5" fill="red"/>
<circle cx="1185.4" cy="745" r="5" fill="red"/>
<circle cx="1195" cy="730" r="5" fill="red"/>
<circle cx="1185" cy="720" r="5" fill="red"/>
<circle cx="1180" cy="700" r="5" fill="red"/>
<circle cx="1205" cy="700" r="5" fill="red"/>
<circle cx="1235" cy="700" r="5" fill="red"/>
<circle cx="1235" cy="660" r="5" fill="red"/>
<circle cx="1260" cy="640" r="5" fill="red"/>
<circle cx="1260" cy="625" r="5" fill="red"/>
<circle cx="1260" cy="565" r="5" fill="red"/>
<circle cx="1260" cy="555" r="5" fill="red"/>
<circle cx="1260" cy="540" r="5" fill="red"/>
<circle cx="1260" cy="530" r="5" fill="red"/>
<circle cx="1220" cy="540" r="5" fill="red"/>
<circle cx="1210" cy="530" r="5" fill="red"/>
<circle cx="1210" cy="555" r="5" fill="red"/>
<circle cx="1220" cy="565" r="5" fill="red"/>
<circle cx="1190" cy="640" r="5" fill="red"/>
<circle cx="1195" cy="655" r="5" fill="red"/>
<circle cx="1195" cy="680" r="5" fill="red"/>
<circle cx="1185" cy="670" r="5" fill="red"/>
<circle cx="1150" cy="700" r="5" fill="red"/>
<circle cx="1135.6" cy="710.6" r="5" fill="red"/>
<circle cx="1124.9" cy="710.7" r="5" fill="red"/>
<circle cx="1124.8" cy="700" r="5" fill="red"/>
<circle cx="1150" cy="650" r="5" fill="red"/>
<circle cx="1135" cy="630" r="5" fill="red"/>
<circle cx="1125" cy="595" r="5" fill="red"/>
<circle cx="1135" cy="590" r="5" fill="red"/>
<circle cx="1135" cy="565" r="5" fill="red"/>
<circle cx="1125" cy="545" r="5" fill="red"/>
<circle cx="1125" cy="530" r="5" fill="red"/>
<circle cx="1110" cy="525" r="5" fill="red"/>
<circle cx="1100" cy="495" r="5" fill="red"/>
<circle cx="1110" cy="455" r="5" fill="red"/>
<circle cx="1125" cy="470" r="5" fill="red"/>
<circle cx="1125" cy="480" r="5" fill="red"/>
<circle cx="1135" cy="515" r="5" fill="red"/>
<circle cx="1139.8" cy="505.6" r="5" fill="red"/>
<circle cx="1139.8" cy="495" r="5" fill="red"/>
<circle cx="1150.4" cy="505.7" r="5" fill="red"/>
<circle cx="1170" cy="525" r="5" fill="red"/>
<circle cx="1170" cy="515" r="5" fill="red"/>
<circle cx="1170" cy="495" r="5" fill="red"/>
<circle cx="1150.4" cy="470.6" r="5" fill="red"/>
<circle cx="1139.8" cy="470.6" r="5" fill="red"/>
<circle cx="1139.8" cy="459.9" r="5" fill="red"/>
<circle cx="1170" cy="445" r="5" fill="red"/>
<circle cx="1170" cy="430" r="5" fill="red"/>
<circle cx="1155" cy="430" r="5" fill="red"/>
<circle cx="1140" cy="430" r="5" fill="red"/>
<circle cx="1125" cy="430" r="5" fill="red"/>
<circle cx="1140" cy="380" r="5" fill="red"/>
<circle cx="1155" cy="380" r="5" fill="red"/>
<circle cx="1170" cy="380" r="5" fill="red"/>
<circle cx="1335" cy="320" r="5" fill="red"/>
<circle cx="1345" cy="295" r="5" fill="red"/>
<circle cx="1355" cy="310" r="5" fill="red"/>
<circle cx="1395" cy="320" r="5" fill="red"/>
<circle cx="1405" cy="350" r="5" fill="red"/>
<circle cx="1405" cy="365" r="5" fill="red"/>
<circle cx="1425" cy="315" r="5" fill="red"/>
<circle cx="1415" cy="300" r="5" fill="red"/>
<circle cx="1445" cy="295" r="5" fill="red"/>
<circle cx="1440" cy="320" r="5" fill="red"/>
<circle cx="1460" cy="335" r="5" fill="red"/>
<circle cx="1490" cy="305" r="5" fill="red"/>
<circle cx="1510" cy="305" r="5" fill="red"/>
<circle cx="1535" cy="295" r="5" fill="red"/>
<circle cx="1495" cy="320" r="5" fill="red"/>
<circle cx="1485" cy="340" r="5" fill="red"/>
<circle cx="1490" cy="355" r="5" fill="red"/>
<circle cx="1500" cy="365" r="5" fill="red"/>
<circle cx="1510" cy="355" r="5" fill="red"/>
<circle cx="1540" cy="355" r="5" fill="red"/>
<circle cx="1575" cy="350" r="5" fill="red"/>
<circle cx="1590" cy="355" r="5" fill="red"/>
<circle cx="1560" cy="375" r="5" fill="red"/>
<circle cx="1540" cy="380" r="5" fill="red"/>
<circle cx="1525" cy="375" r="5" fill="red"/>
<circle cx="1500" cy="385" r="5" fill="red"/>
<circle cx="1500" cy="405" r="5" fill="red"/>
<circle cx="1505" cy="430" r="5" fill="red"/>
<circle cx="1525" cy="425" r="5" fill="red"/>
<circle cx="1545" cy="425" r="5" fill="red"/>
<circle cx="1540" cy="445" r="5" fill="red"/>
<circle cx="1520" cy="465" r="5" fill="red"/>
<circle cx="1505" cy="460" r="5" fill="red"/>
<circle cx="1495" cy="480" r="5" fill="red"/>
<circle cx="1510" cy="510" r="5" fill="red"/>
<circle cx="1520" cy="515" r="5" fill="red"/>
<circle cx="1535" cy="525" r="5" fill="red"/>
<circle cx="1545" cy="525" r="5" fill="red"/>
<circle cx="1560" cy="525" r="5" fill="red"/>
<circle cx="1560" cy="575" r="5" fill="red"/>
<circle cx="1545" cy="575" r="5" fill="red"/>
<circle cx="1535" cy="565" r="5" fill="red"/>
<circle cx="1505" cy="530" r="5" fill="red"/>
<circle cx="1495" cy="500" r="5" fill="red"/>
<circle cx="1470" cy="500" r="5" fill="red"/>
<circle cx="1440" cy="520" r="5" fill="red"/>
<circle cx="1445" cy="500" r="5" fill="red"/>
<circle cx="1410" cy="500" r="5" fill="red"/>
<circle cx="1415" cy="480" r="5" fill="red"/>
<circle cx="1410" cy="465" r="5" fill="red"/>
<circle cx="1430" cy="480" r="5" fill="red"/>
<circle cx="1450" cy="465" r="5" fill="red"/>
<circle cx="1450" cy="445" r="5" fill="red"/>
<circle cx="1470" cy="450" r="5" fill="red"/>
<circle cx="1470" cy="430" r="5" fill="red"/>
<circle cx="1470" cy="400" r="5" fill="red"/>
<circle cx="1460" cy="385" r="5" fill="red"/>
<circle cx="1455" cy="400" r="5" fill="red"/>
<circle cx="1455" cy="430" r="5" fill="red"/>
<circle cx="1430" cy="430" r="5" fill="red"/>
<circle cx="1410" cy="445" r="5" fill="red"/>
<circle cx="1370" cy="430" r="5" fill="red"/>
<circle cx="1355" cy="430" r="5" fill="red"/>
<circle cx="1340" cy="420" r="5" fill="red"/>
<circle cx="1340" cy="470" r="5" fill="red"/>
<circle cx="1370" cy="460" r="5" fill="red"/>
<circle cx="1355" cy="480" r="5" fill="red"/>
<circle cx="1335" cy="575" r="5" fill="red"/>
<circle cx="1335" cy="615" r="5" fill="red"/>
<circle cx="1325" cy="670" r="5" fill="red"/>
<circle cx="1400" cy="655" r="5" fill="red"/>
<circle cx="1410" cy="625" r="5" fill="red"/>
<circle cx="1395" cy="615" r="5" fill="red"/>
<circle cx="1395" cy="575" r="5" fill="red"/>
<circle cx="1420" cy="565" r="5" fill="red"/>
<circle cx="1420" cy="605" r="5" fill="red"/>
<circle cx="1450" cy="590" r="5" fill="red"/>
<circle cx="1470" cy="585" r="5" fill="red"/>
<circle cx="1470" cy="625" r="5" fill="red"/>
<circle cx="1450" cy="630" r="5" fill="red"/>
<circle cx="1450" cy="645" r="5" fill="red"/>
<circle cx="1435" cy="625" r="5" fill="red"/>
<circle cx="1435" cy="640" r="5" fill="red"/>
<circle cx="1424.7" cy="665" r="5" fill="red"/>
<circle cx="1435.4" cy="675.6" r="5" fill="red"/>
<circle cx="1424.7" cy="675.6" r="5" fill="red"/>
<circle cx="1410" cy="675" r="5" fill="red"/>
<circle cx="1410" cy="685" r="5" fill="red"/>
<circle cx="1400" cy="705" r="5" fill="red"/>
<circle cx="1419.9" cy="705.4" r="5" fill="red"/>
<circle cx="1430.5" cy="705.4" r="5" fill="red"/>
<circle cx="1430.4" cy="694.7" r="5" fill="red"/>
<circle cx="1450" cy="695" r="5" fill="red"/>
<circle cx="1450" cy="755" r="5" fill="red"/>
<circle cx="1465" cy="750" r="5" fill="red"/>
<circle cx="1480" cy="760" r="5" fill="red"/>
<circle cx="1505" cy="755" r="5" fill="red"/>
<circle cx="1515" cy="765" r="5" fill="red"/>
<circle cx="1530" cy="755" r="5" fill="red"/>
<circle cx="1540" cy="755" r="5" fill="red"/>
<circle cx="1515" cy="700" r="5" fill="red"/>
<circle cx="1525" cy="685" r="5" fill="red"/>
<circle cx="1530" cy="665" r="5" fill="red"/>
<circle cx="1565" cy="685" r="5" fill="red"/>
<circle cx="1580" cy="685" r="5" fill="red"/>
<circle cx="1565" cy="700" r="5" fill="red"/>
<circle cx="1580" cy="700" r="5" fill="red"/>
<circle cx="1575" cy="720" r="5" fill="red"/>
<circle cx="1575" cy="735" r="5" fill="red"/>
<circle cx="1570" cy="750" r="5" fill="red"/>
<circle cx="1570" cy="765" r="5" fill="red"/>
<circle cx="1555" cy="750" r="5" fill="red"/>
<circle cx="1555" cy="765" r="5" fill="red"/>
<circle cx="1600" cy="810" r="5" fill="red"/>
<circle cx="1600" cy="850" r="5" fill="red"/>
<circle cx="1555" cy="815" r="5" fill="red"/>
<circle cx="1540" cy="805" r="5" fill="red"/>
<circle cx="1530" cy="795" r="5" fill="red"/>
<circle cx="1515" cy="805" r="5" fill="red"/>
<circle cx="1515" cy="850" r="5" fill="red"/>
<circle cx="1505" cy="805" r="5" fill="red"/>
<circle cx="1480" cy="800" r="5" fill="red"/>
<circle cx="1465" cy="790" r="5" fill="red"/>
<circle cx="1450" cy="805" r="5" fill="red"/>
<circle cx="1425" cy="820" r="5" fill="red"/>
<circle cx="1425" cy="785" r="5" fill="red"/>
<circle cx="1425" cy="745" r="5" fill="red"/>
<circle cx="1410" cy="735" r="5" fill="red"/>
<circle cx="1395" cy="745" r="5" fill="red"/>
<circle cx="1380" cy="745" r="5" fill="red"/>
<circle cx="1395" cy="785" r="5" fill="red"/>
<circle cx="1380" cy="785" r="5" fill="red"/>
<circle cx="1325" cy="850" r="5" fill="red"/>
<circle cx="1330" cy="895" r="5" fill="red"/>
<circle cx="1330" cy="905" r="5" fill="red"/>
<circle cx="1390" cy="935" r="5" fill="red"/>
<circle cx="1425" cy="930" r="5" fill="red"/>
<circle cx="1440" cy="925" r="5" fill="red"/>
<circle cx="1425" cy="880" r="5" fill="red"/>
<circle cx="1445" cy="895" r="5" fill="red"/>
<circle cx="1465" cy="895" r="5" fill="red"/>
<circle cx="1455" cy="915" r="5" fill="red"/>
<circle cx="1455" cy="940" r="5" fill="red"/>
<circle cx="1465" cy="965" r="5" fill="red"/>
<circle cx="1440" cy="975" r="5" fill="red"/>
<circle cx="1425" cy="975" r="5" fill="red"/>
<circle cx="1455" cy="1025" r="5" fill="red"/>
<circle cx="1455" cy="1045" r="5" fill="red"/>
<circle cx="1425" cy="1075" r="5" fill="red"/>
<circle cx="1430" cy="1095" r="5" fill="red"/>
<circle cx="1450" cy="1125" r="5" fill="red"/>
<circle cx="1430" cy="1145" r="5" fill="red"/>
<circle cx="1430" cy="1165" r="5" fill="red"/>
<circle cx="1410" cy="1165" r="5" fill="red"/>
<circle cx="1390" cy="1165" r="5" fill="red"/>
<circle cx="1420" cy="1135" r="5" fill="red"/>
<circle cx="1405" cy="1120" r="5" fill="red"/>
<circle cx="1420" cy="1095" r="5" fill="red"/>
<circle cx="1405" cy="1070" r="5" fill="red"/>
<circle cx="1390" cy="1075" r="5" fill="red"/>
<circle cx="1375" cy="1100" r="5" fill="red"/>
<circle cx="1345" cy="1095" r="5" fill="red"/>
<circle cx="1330" cy="1085" r="5" fill="red"/>
<circle cx="1330" cy="1215" r="5" fill="red"/>
<circle cx="1345" cy="1195" r="5" fill="red"/>
<circle cx="1375" cy="1200" r="5" fill="red"/>
<circle cx="1360" cy="1260" r="5" fill="red"/>
<circle cx="1375" cy="1270" r="5" fill="red"/>
<circle cx="1375" cy="1290" r="5" fill="red"/>
<circle cx="1360" cy="1310" r="5" fill="red"/>
<circle cx="1390" cy="1305" r="5" fill="red"/>
<circle cx="1390" cy="1290" r="5" fill="red"/>
<circle cx="1390" cy="1265" r="5" fill="red"/>
<circle cx="1410" cy="1265" r="5" fill="red"/>
<circle cx="1430" cy="1265" r="5" fill="red"/>
<circle cx="1460" cy="1260" r="5" fill="red"/>
<circle cx="1460" cy="1235" r="5" fill="red"/>
<circle cx="1455" cy="1205" r="5" fill="red"/>
<circle cx="1450" cy="1175" r="5" fill="red"/>
<circle cx="1560" cy="1125" r="5" fill="red"/>
<circle cx="1560" cy="1175" r="5" fill="red"/>
<circle cx="1595" cy="1175" r="5" fill="red"/>
<circle cx="1610" cy="1175" r="5" fill="red"/>
<circle cx="1625" cy="1170" r="5" fill="red"/>
<circle cx="1640" cy="1180" r="5" fill="red"/>
<circle cx="1620" cy="1180" r="5" fill="red"/>
<circle cx="1615" cy="1190" r="5" fill="red"/>
<circle cx="1595" cy="1205" r="5" fill="red"/>
<circle cx="1565" cy="1205" r="5" fill="red"/>
<circle cx="1560" cy="1235" r="5" fill="red"/>
<circle cx="1595" cy="1235" r="5" fill="red"/>
<circle cx="1605" cy="1255" r="5" fill="red"/>
<circle cx="1615" cy="1255" r="5" fill="red"/>
<circle cx="1620" cy="1265" r="5" fill="red"/>
<circle cx="1595" cy="1265" r="5" fill="red"/>
<circle cx="1560" cy="1260" r="5" fill="red"/>
<circle cx="1595" cy="1315" r="5" fill="red"/>
<circle cx="1605" cy="1305" r="5" fill="red"/>
<circle cx="1645" cy="1305" r="5" fill="red"/>
<circle cx="1635" cy="1285" r="5" fill="red"/>
<circle cx="1655" cy="1285" r="5" fill="red"/>
<circle cx="1650" cy="1265" r="5" fill="red"/>
<circle cx="1665" cy="1255" r="5" fill="red"/>
<circle cx="1695" cy="1275" r="5" fill="red"/>
<circle cx="1695" cy="1215" r="5" fill="red"/>
<circle cx="1700" cy="1200" r="5" fill="red"/>
<circle cx="1720" cy="1200" r="5" fill="red"/>
<circle cx="1720" cy="1170" r="5" fill="red"/>
<circle cx="1710" cy="1175" r="5" fill="red"/>
<circle cx="1705" cy="1190" r="5" fill="red"/>
<circle cx="1690" cy="1195" r="5" fill="red"/>
<circle cx="1670" cy="1180" r="5" fill="red"/>
<circle cx="1685" cy="1170" r="5" fill="red"/>
<circle cx="1700" cy="1155" r="5" fill="red"/>
<circle cx="1680" cy="1145" r="5" fill="red"/>
<circle cx="1700" cy="1130" r="5" fill="red"/>
<circle cx="1710" cy="1125" r="5" fill="red"/>
<circle cx="1730" cy="1115" r="5" fill="red"/>
<circle cx="1730" cy="1085" r="5" fill="red"/>
<circle cx="1730" cy="1065" r="5" fill="red"/>
<circle cx="1730" cy="1050" r="5" fill="red"/>
<circle cx="1700" cy="1050" r="5" fill="red"/>
<circle cx="1690" cy="1050" r="5" fill="red"/>
<circle cx="1695" cy="1075" r="5" fill="red"/>
<circle cx="1670" cy="1065" r="5" fill="red"/>
<circle cx="1680" cy="1085" r="5" fill="red"/>
<circle cx="1670" cy="1115" r="5" fill="red"/>
<circle cx="1670" cy="1130" r="5" fill="red"/>
<circle cx="1660" cy="1130" r="5" fill="red"/>
<circle cx="1650" cy="1155" r="5" fill="red"/>
<circle cx="1640" cy="1155" r="5" fill="red"/>
<circle cx="1620" cy="1145" r="5" fill="red"/>
<circle cx="1610" cy="1155" r="5" fill="red"/>
<circle cx="1610" cy="1130" r="5" fill="red"/>
<circle cx="1595" cy="1125" r="5" fill="red"/>
<circle cx="1600" cy="1110" r="5" fill="red"/>
<circle cx="1615" cy="1070" r="5" fill="red"/>
<circle cx="1625" cy="1045" r="5" fill="red"/>
<circle cx="1625" cy="1035" r="5" fill="red"/>
<circle cx="1635" cy="1035" r="5" fill="red"/>
<circle cx="1615" cy="1010" r="5" fill="red"/>
<circle cx="1615" cy="1000" r="5" fill="red"/>
<circle cx="1600" cy="995" r="5" fill="red"/>
<circle cx="1600" cy="1010" r="5" fill="red"/>
<circle cx="1555" cy="1045" r="5" fill="red"/>
<circle cx="1555" cy="1025" r="5" fill="red"/>
<circle cx="1565" cy="965" r="5" fill="red"/>
<circle cx="1555" cy="940" r="5" fill="red"/>
<circle cx="1555" cy="915" r="5" fill="red"/>
<circle cx="1565" cy="895" r="5" fill="red"/>
<circle cx="1590" cy="885" r="5" fill="red"/>
<circle cx="1595" cy="915" r="5" fill="red"/>
<circle cx="1600" cy="935" r="5" fill="red"/>
<circle cx="1640" cy="985" r="5" fill="red"/>
<circle cx="1645" cy="1010" r="5" fill="red"/>
<circle cx="1650" cy="1020" r="5" fill="red"/>
<circle cx="1650" cy="1050" r="5" fill="red"/>
<circle cx="1660" cy="1050" r="5" fill="red"/>
<circle cx="1669.9" cy="1035.6" r="5" fill="red"/>
<circle cx="1669.9" cy="1025" r="5" fill="red"/>
<circle cx="1680.5" cy="1024.9" r="5" fill="red"/>
<circle cx="1675" cy="1010" r="5" fill="red"/>
<circle cx="1675" cy="1000" r="5" fill="red"/>
<circle cx="1660" cy="950" r="5" fill="red"/>
<circle cx="1690" cy="985" r="5" fill="red"/>
<circle cx="1720" cy="950" r="5" fill="red"/>
<circle cx="1735" cy="915" r="5" fill="red"/>
<circle cx="1700" cy="885" r="5" fill="red"/>
<circle cx="1710" cy="825" r="5" fill="red"/>
<circle cx="1710" cy="810" r="5" fill="red"/>
<circle cx="1680" cy="750" r="5" fill="red"/>
<circle cx="1660.3" cy="755.7" r="5" fill="red"/>
<circle cx="1649.8" cy="755.7" r="5" fill="red"/>
<circle cx="1660.4" cy="745" r="5" fill="red"/>
<circle cx="1670" cy="730" r="5" fill="red"/>
<circle cx="1660" cy="720" r="5" fill="red"/>
<circle cx="1655" cy="700" r="5" fill="red"/>
<circle cx="1680" cy="700" r="5" fill="red"/>
<circle cx="1710" cy="700" r="5" fill="red"/>
<circle cx="1710" cy="660" r="5" fill="red"/>
<circle cx="1735" cy="640" r="5" fill="red"/>
<circle cx="1735" cy="625" r="5" fill="red"/>
<circle cx="1735" cy="565" r="5" fill="red"/>
<circle cx="1735" cy="555" r="5" fill="red"/>
<circle cx="1735" cy="540" r="5" fill="red"/>
<circle cx="1735" cy="530" r="5" fill="red"/>
<circle cx="1695" cy="540" r="5" fill="red"/>
<circle cx="1685" cy="530" r="5" fill="red"/>
<circle cx="1685" cy="555" r="5" fill="red"/>
<circle cx="1695" cy="565" r="5" fill="red"/>
<circle cx="1665" cy="640" r="5" fill="red"/>
<circle cx="1670" cy="655" r="5" fill="red"/>
<circle cx="1670" cy="680" r="5" fill="red"/>
<circle cx="1660" cy="670" r="5" fill="red"/>
<circle cx="1625" cy="700" r="5" fill="red"/>
<circle cx="1610.6" cy="710.6" r="5" fill="red"/>
<circle cx="1599.9" cy="710.7" r="5" fill="red"/>
<circle cx="1599.8" cy="700" r="5" fill="red"/>
<circle cx="1625" cy="650" r="5" fill="red"/>
<circle cx="1610" cy="630" r="5" fill="red"/>
<circle cx="1600" cy="595" r="5" fill="red"/>
<circle cx="1610" cy="590" r="5" fill="red"/>
<circle cx="1610" cy="565" r="5" fill="red"/>
<circle cx="1600" cy="545" r="5" fill="red"/>
<circle cx="1600" cy="530" r="5" fill="red"/>
<circle cx="1585" cy="525" r="5" fill="red"/>
<circle cx="1575" cy="495" r="5" fill="red"/>
<circle cx="1585" cy="455" r="5" fill="red"/>
<circle cx="1600" cy="470" r="5" fill="red"/>
<circle cx="1600" cy="480" r="5" fill="red"/>
<circle cx="1610" cy="515" r="5" fill="red"/>
<circle cx="1614.8" cy="505.6" r="5" fill="red"/>
<circle cx="1614.8" cy="495" r="5" fill="red"/>
<circle cx="1625.4" cy="505.7" r="5" fill="red"/>
<circle cx="1645" cy="525" r="5" fill="red"/>
<circle cx="1645" cy="515" r="5" fill="red"/>
<circle cx="1645" cy="495" r="5" fill="red"/>
<circle cx="1625.4" cy="470.6" r="5" fill="red"/>
<circle cx="1614.8" cy="470.6" r="5" fill="red"/>
<circle cx="1614.8" cy="459.9" r="5" fill="red"/>
<circle cx="1645" cy="445" r="5" fill="red"/>
<circle cx="1645" cy="430" r="5" fill="red"/>
<circle cx="1630" cy="430" r="5" fill="red"/>
<circle cx="1615" cy="430" r="5" fill="red"/>
<circle cx="1600" cy="430" r="5" fill="red"/>
<circle cx="1615" cy="380" r="5" fill="red"/>
<circle cx="1630" cy="380" r="5" fill="red"/>
<circle cx="1645" cy="380" r="5" fill="red"/>
<circle cx="695" cy="645" r="5" fill="red"/>
<circle cx="1170" cy="645" r="5" fill="red"/>
<circle cx="1645" cy="645" r="5" fill="red"/>
<circle cx="555" cy="725" r="5" fill="red"/>
<circle cx="555" cy="995" r="5" fill="red"/>
<circle cx="555" cy="1315" r="5" fill="red"/>
<circle cx="1030" cy="725" r="5" fill="red"/>
<circle cx="1030" cy="995" r="5" fill="red"/>
<circle cx="1030" cy="1315" r="5" fill="red"/>
<circle cx="1505" cy="725" r="5" fill="red"/>
<circle cx="1505" cy="995" r="5" fill="red"/>
<circle cx="1505" cy="1315" r="5" fill="red"/>
</svg>